<svg width="144" height="58" viewBox="0 0 144 58" fill="none" xmlns="http://www.w3.org/2000/svg">
<path d="M59.5996 37.24C58.6556 37.24 57.7916 37.072 57.0076 36.736C56.2396 36.384 55.5676 35.912 54.9916 35.32C54.4316 34.712 53.9916 34.016 53.6716 33.232C53.3676 32.448 53.2156 31.616 53.2156 30.736C53.2156 29.552 53.4876 28.472 54.0316 27.496C54.5756 26.52 55.3276 25.736 56.2876 25.144C57.2636 24.552 58.3756 24.256 59.6236 24.256C60.8876 24.256 61.9836 24.56 62.9116 25.168C63.8556 25.76 64.5836 26.544 65.0956 27.52C65.6236 28.48 65.8876 29.52 65.8876 30.64C65.8876 30.8 65.8796 30.96 65.8636 31.12C65.8636 31.264 65.8556 31.376 65.8396 31.456H55.4476C55.5116 32.272 55.7356 33 56.1196 33.64C56.5196 34.264 57.0316 34.76 57.6556 35.128C58.2796 35.48 58.9516 35.656 59.6716 35.656C60.4396 35.656 61.1596 35.464 61.8316 35.08C62.5196 34.696 62.9916 34.192 63.2476 33.568L65.0716 34.072C64.7996 34.68 64.3916 35.224 63.8476 35.704C63.3196 36.184 62.6876 36.56 61.9516 36.832C61.2316 37.104 60.4476 37.24 59.5996 37.24ZM55.3756 29.992H63.9196C63.8556 29.176 63.6236 28.456 63.2236 27.832C62.8236 27.208 62.3116 26.72 61.6876 26.368C61.0636 26.016 60.3756 25.84 59.6236 25.84C58.8876 25.84 58.2076 26.016 57.5836 26.368C56.9596 26.72 56.4476 27.208 56.0476 27.832C55.6636 28.456 55.4396 29.176 55.3756 29.992ZM79.1073 37H76.9953V29.992C76.9953 28.664 76.7873 27.696 76.3713 27.088C75.9713 26.464 75.3553 26.152 74.5233 26.152C73.9473 26.152 73.3713 26.296 72.7953 26.584C72.2353 26.872 71.7313 27.264 71.2833 27.76C70.8513 28.24 70.5393 28.8 70.3473 29.44V37H68.2353V24.472H70.1553V27.16C70.4913 26.568 70.9233 26.056 71.4513 25.624C71.9793 25.192 72.5793 24.856 73.2513 24.616C73.9233 24.376 74.6273 24.256 75.3633 24.256C76.0833 24.256 76.6833 24.392 77.1633 24.664C77.6593 24.92 78.0433 25.288 78.3153 25.768C78.6033 26.232 78.8033 26.784 78.9153 27.424C79.0433 28.064 79.1073 28.76 79.1073 29.512V37ZM87.8635 37.24C86.9195 37.24 86.0635 37.072 85.2955 36.736C84.5275 36.384 83.8635 35.912 83.3035 35.32C82.7435 34.712 82.3115 34.016 82.0075 33.232C81.7035 32.448 81.5515 31.624 81.5515 30.76C81.5515 29.88 81.7035 29.048 82.0075 28.264C82.3115 27.48 82.7435 26.792 83.3035 26.2C83.8635 25.592 84.5275 25.12 85.2955 24.784C86.0795 24.432 86.9355 24.256 87.8635 24.256C88.8075 24.256 89.6635 24.432 90.4315 24.784C91.1995 25.12 91.8635 25.592 92.4235 26.2C92.9995 26.792 93.4395 27.48 93.7435 28.264C94.0475 29.048 94.1995 29.88 94.1995 30.76C94.1995 31.624 94.0475 32.448 93.7435 33.232C93.4395 34.016 93.0075 34.712 92.4475 35.32C91.8875 35.912 91.2155 36.384 90.4315 36.736C89.6635 37.072 88.8075 37.24 87.8635 37.24ZM83.7115 30.784C83.7115 31.648 83.8955 32.432 84.2635 33.136C84.6475 33.84 85.1515 34.4 85.7755 34.816C86.3995 35.216 87.0955 35.416 87.8635 35.416C88.6315 35.416 89.3275 35.208 89.9515 34.792C90.5915 34.376 91.0955 33.816 91.4635 33.112C91.8475 32.392 92.0395 31.6 92.0395 30.736C92.0395 29.872 91.8475 29.088 91.4635 28.384C91.0955 27.68 90.5915 27.12 89.9515 26.704C89.3275 26.288 88.6315 26.08 87.8635 26.08C87.0955 26.08 86.3995 26.296 85.7755 26.728C85.1515 27.144 84.6475 27.704 84.2635 28.408C83.8955 29.112 83.7115 29.904 83.7115 30.784ZM95.9341 19.96L101.574 34.288L107.19 19.96H109.47L102.558 37H100.59L93.6541 19.96H95.9341ZM111.767 37V19.96H118.871C119.623 19.96 120.311 20.12 120.935 20.44C121.559 20.744 122.103 21.16 122.567 21.688C123.031 22.2 123.391 22.784 123.647 23.44C123.903 24.08 124.031 24.736 124.031 25.408C124.031 26.336 123.823 27.224 123.407 28.072C122.991 28.904 122.407 29.584 121.655 30.112C120.903 30.624 120.023 30.88 119.015 30.88H113.927V37H111.767ZM113.927 28.96H118.895C119.487 28.96 119.999 28.8 120.431 28.48C120.879 28.16 121.223 27.728 121.463 27.184C121.719 26.64 121.847 26.048 121.847 25.408C121.847 24.736 121.703 24.136 121.415 23.608C121.127 23.064 120.751 22.64 120.287 22.336C119.823 22.032 119.311 21.88 118.751 21.88H113.927V28.96ZM128.88 23.944V37H126.72V19.96H128.544L138.96 33.28V19.984H141.12V37H139.152L128.88 23.944Z" fill="white"/>
<path d="M21.0624 28.9121L40.5729 19.4272L19.2244 47.0195L7.60156 40.5436L18.3761 27.475L21.0624 28.9121Z" fill="url(#paint0_linear_2015_2589)"/>
<path d="M50.3984 35.7572L39.577 30.4077L28.7188 44.9077L50.3984 35.7572Z" fill="url(#paint1_linear_2015_2589)"/>
<path d="M36.0303 0L7.63184 13.5146L20.8566 20.6942L50.3687 7.17961L36.0303 0Z" fill="#FFE453"/>
<path d="M7.63184 13.5146L20.8566 20.6943V29.2816L7.63184 22.8059V13.5146Z" fill="#ECBE01"/>
<path d="M28.7914 44.7676L50.3687 16.753V7.18018L20.8566 20.6947V29.2821L40.0673 19.9909L19.0469 47.02V58.0006L50.3687 44.3452V35.7578L28.7914 44.7676Z" fill="#FFD700"/>
<path d="M7.60156 40.5435L19.1453 46.8392V57.9998L7.60156 51.4179V40.5435Z" fill="#ECBE01"/>
<path d="M36.32 35.0534L34.6307 40.2621L47.8637 36.4611L50.3977 35.7573L28.7181 44.8468L36.32 35.0534Z" fill="url(#paint2_linear_2015_2589)" fill-opacity="0.78"/>
<path d="M30.8303 31.9565L33.3642 25.1993L20.8351 29.2818L40.1115 19.9507L30.8303 31.9565Z" fill="url(#paint3_linear_2015_2589)" fill-opacity="0.78"/>
<defs>
<linearGradient id="paint0_linear_2015_2589" x1="24.1021" y1="19.4272" x2="7.22295" y2="44.5503" gradientUnits="userSpaceOnUse">
<stop stop-color="#DB9D00"/>
<stop offset="1" stop-color="#FFD700"/>
</linearGradient>
<linearGradient id="paint1_linear_2015_2589" x1="38.9779" y1="30.916" x2="31.1932" y2="45.1482" gradientUnits="userSpaceOnUse">
<stop stop-color="#FFD700"/>
<stop offset="1" stop-color="#DB9D00"/>
</linearGradient>
<linearGradient id="paint2_linear_2015_2589" x1="35.2324" y1="40.1981" x2="33.6579" y2="46.5917" gradientUnits="userSpaceOnUse">
<stop offset="0.0001"/>
<stop offset="0.62535"/>
<stop offset="1"/>
</linearGradient>
<linearGradient id="paint3_linear_2015_2589" x1="34.7969" y1="23.9258" x2="36.4111" y2="18.4021" gradientUnits="userSpaceOnUse">
<stop offset="0.0001"/>
<stop offset="0.62535"/>
<stop offset="1"/>
</linearGradient>
</defs>
</svg>
