<svg width="58" height="58" viewBox="0 0 58 58" fill="none" xmlns="http://www.w3.org/2000/svg">
<path d="M21.0624 28.9121L40.5729 19.4272L19.2244 47.0195L7.60156 40.5436L18.3761 27.475L21.0624 28.9121Z" fill="url(#paint0_linear_2019_2581)"/>
<path d="M50.3984 35.7572L39.577 30.4077L28.7188 44.9077L50.3984 35.7572Z" fill="url(#paint1_linear_2019_2581)"/>
<path d="M36.0303 0L7.63184 13.5146L20.8566 20.6942L50.3687 7.17961L36.0303 0Z" fill="#FFE453"/>
<path d="M7.63184 13.5146L20.8566 20.6943V29.2816L7.63184 22.8059V13.5146Z" fill="#ECBE01"/>
<path d="M28.7914 44.7676L50.3687 16.753V7.18018L20.8566 20.6947V29.2821L40.0673 19.9909L19.0469 47.02V58.0006L50.3687 44.3452V35.7578L28.7914 44.7676Z" fill="#FFD700"/>
<path d="M7.60156 40.5435L19.1453 46.8392V57.9998L7.60156 51.4179V40.5435Z" fill="#ECBE01"/>
<path d="M36.32 35.0534L34.6307 40.2621L47.8637 36.4611L50.3977 35.7573L28.7181 44.8468L36.32 35.0534Z" fill="url(#paint2_linear_2019_2581)" fill-opacity="0.78"/>
<path d="M30.8303 31.9565L33.3642 25.1993L20.8351 29.2818L40.1115 19.9507L30.8303 31.9565Z" fill="url(#paint3_linear_2019_2581)" fill-opacity="0.78"/>
<defs>
<linearGradient id="paint0_linear_2019_2581" x1="24.1021" y1="19.4272" x2="7.22295" y2="44.5503" gradientUnits="userSpaceOnUse">
<stop stop-color="#DB9D00"/>
<stop offset="1" stop-color="#FFD700"/>
</linearGradient>
<linearGradient id="paint1_linear_2019_2581" x1="38.9779" y1="30.916" x2="31.1932" y2="45.1482" gradientUnits="userSpaceOnUse">
<stop stop-color="#FFD700"/>
<stop offset="1" stop-color="#DB9D00"/>
</linearGradient>
<linearGradient id="paint2_linear_2019_2581" x1="35.2324" y1="40.1981" x2="33.6579" y2="46.5917" gradientUnits="userSpaceOnUse">
<stop offset="0.0001"/>
<stop offset="0.62535"/>
<stop offset="1"/>
</linearGradient>
<linearGradient id="paint3_linear_2019_2581" x1="34.7969" y1="23.9258" x2="36.4111" y2="18.4021" gradientUnits="userSpaceOnUse">
<stop offset="0.0001"/>
<stop offset="0.62535"/>
<stop offset="1"/>
</linearGradient>
</defs>
</svg>
