<svg width="57" height="46" viewBox="0 0 57 46" fill="none" xmlns="http://www.w3.org/2000/svg">
<path d="M0.527766 15.36L11.5198 1.92004H0.743766V3.8147e-05H14.0398V1.68004L3.23977 15.12H14.0398V17.04H0.527766V15.36Z" fill="#FFD700"/>
<path d="M21.7968 17.28C20.8528 17.28 19.9888 17.112 19.2048 16.776C18.4368 16.424 17.7648 15.952 17.1888 15.36C16.6288 14.752 16.1888 14.056 15.8688 13.272C15.5648 12.488 15.4128 11.656 15.4128 10.776C15.4128 9.59204 15.6848 8.51204 16.2288 7.53604C16.7728 6.56004 17.5248 5.77604 18.4848 5.18404C19.4608 4.59204 20.5728 4.29604 21.8208 4.29604C23.0848 4.29604 24.1808 4.60004 25.1088 5.20804C26.0528 5.80004 26.7808 6.58404 27.2928 7.56004C27.8208 8.52004 28.0848 9.56004 28.0848 10.68C28.0848 10.84 28.0768 11 28.0608 11.16C28.0608 11.304 28.0528 11.416 28.0368 11.496H17.6448C17.7088 12.312 17.9328 13.04 18.3168 13.68C18.7168 14.304 19.2288 14.8 19.8528 15.168C20.4768 15.52 21.1488 15.696 21.8688 15.696C22.6368 15.696 23.3568 15.504 24.0288 15.12C24.7168 14.736 25.1888 14.232 25.4448 13.608L27.2688 14.112C26.9968 14.72 26.5888 15.264 26.0448 15.744C25.5168 16.224 24.8848 16.6 24.1488 16.872C23.4288 17.144 22.6448 17.28 21.7968 17.28ZM17.5728 10.032H26.1168C26.0528 9.21604 25.8208 8.49604 25.4208 7.87204C25.0208 7.24804 24.5088 6.76004 23.8848 6.40804C23.2608 6.05604 22.5728 5.88004 21.8208 5.88004C21.0848 5.88004 20.4048 6.05604 19.7808 6.40804C19.1568 6.76004 18.6448 7.24804 18.2448 7.87204C17.8608 8.49604 17.6368 9.21604 17.5728 10.032ZM41.3045 17.04H39.1925V10.032C39.1925 8.70404 38.9845 7.73604 38.5685 7.12804C38.1685 6.50404 37.5525 6.19204 36.7205 6.19204C36.1445 6.19204 35.5685 6.33604 34.9925 6.62404C34.4325 6.91204 33.9285 7.30404 33.4805 7.80004C33.0485 8.28004 32.7365 8.84004 32.5445 9.48004V17.04H30.4325V4.51204H32.3525V7.20004C32.6885 6.60804 33.1205 6.09604 33.6485 5.66404C34.1765 5.23204 34.7765 4.89604 35.4485 4.65604C36.1205 4.41604 36.8245 4.29604 37.5605 4.29604C38.2805 4.29604 38.8805 4.43204 39.3605 4.70404C39.8565 4.96004 40.2405 5.32804 40.5125 5.80804C40.8005 6.27204 41.0005 6.82404 41.1125 7.46404C41.2405 8.10404 41.3045 8.80004 41.3045 9.55204V17.04ZM50.0608 17.28C49.1168 17.28 48.2608 17.112 47.4928 16.776C46.7248 16.424 46.0608 15.952 45.5008 15.36C44.9408 14.752 44.5088 14.056 44.2048 13.272C43.9008 12.488 43.7488 11.664 43.7488 10.8C43.7488 9.92004 43.9008 9.08804 44.2048 8.30404C44.5088 7.52004 44.9408 6.83204 45.5008 6.24004C46.0608 5.63204 46.7248 5.16004 47.4928 4.82404C48.2768 4.47204 49.1328 4.29604 50.0608 4.29604C51.0048 4.29604 51.8608 4.47204 52.6288 4.82404C53.3968 5.16004 54.0608 5.63204 54.6208 6.24004C55.1968 6.83204 55.6368 7.52004 55.9408 8.30404C56.2448 9.08804 56.3968 9.92004 56.3968 10.8C56.3968 11.664 56.2448 12.488 55.9408 13.272C55.6368 14.056 55.2048 14.752 54.6448 15.36C54.0848 15.952 53.4128 16.424 52.6288 16.776C51.8608 17.112 51.0048 17.28 50.0608 17.28ZM45.9088 10.824C45.9088 11.688 46.0928 12.472 46.4608 13.176C46.8448 13.88 47.3488 14.44 47.9728 14.856C48.5968 15.256 49.2928 15.456 50.0608 15.456C50.8288 15.456 51.5248 15.248 52.1488 14.832C52.7888 14.416 53.2928 13.856 53.6608 13.152C54.0448 12.432 54.2368 11.64 54.2368 10.776C54.2368 9.91204 54.0448 9.12804 53.6608 8.42404C53.2928 7.72004 52.7888 7.16004 52.1488 6.74404C51.5248 6.32804 50.8288 6.12004 50.0608 6.12004C49.2928 6.12004 48.5968 6.33604 47.9728 6.76804C47.3488 7.18404 46.8448 7.74404 46.4608 8.44804C46.0928 9.15204 45.9088 9.94404 45.9088 10.824ZM2.27977 28L7.91977 42.328L13.5358 28H15.8158L8.90377 45.04H6.93577L-0.000234358 28H2.27977ZM18.1123 45.04V28H25.2163C25.9683 28 26.6563 28.16 27.2803 28.48C27.9043 28.784 28.4483 29.2 28.9123 29.728C29.3763 30.24 29.7363 30.824 29.9923 31.48C30.2483 32.12 30.3763 32.776 30.3763 33.448C30.3763 34.376 30.1683 35.264 29.7523 36.112C29.3363 36.944 28.7523 37.624 28.0003 38.152C27.2483 38.664 26.3683 38.92 25.3603 38.92H20.2723V45.04H18.1123ZM20.2723 37H25.2403C25.8323 37 26.3443 36.84 26.7763 36.52C27.2243 36.2 27.5683 35.768 27.8083 35.224C28.0643 34.68 28.1923 34.088 28.1923 33.448C28.1923 32.776 28.0483 32.176 27.7603 31.648C27.4723 31.104 27.0963 30.68 26.6323 30.376C26.1683 30.072 25.6563 29.92 25.0963 29.92H20.2723V37ZM35.2254 31.984V45.04H33.0654V28H34.8894L45.3054 41.32V28.024H47.4654V45.04H45.4974L35.2254 31.984Z" fill="white"/>
</svg>
